<?xml version="1.0" encoding="UTF-8"?>
<svg xmlns="http://www.w3.org/2000/svg" xmlns:xlink="http://www.w3.org/1999/xlink" version="1.1" id="Capa_1" x="0px" y="0px" viewBox="0 0 89.2 89.2" xml:space="preserve">
<g>
	<path fill="none" stroke="#808181" stroke-width="2" stroke-linecap="round" stroke-linejoin="round" stroke-miterlimit="10" d="   M36.1,74.2c0,0-5.6,0-6.2-5.7l4.4-32.5"></path>
	<path fill="none" stroke="#808181" stroke-width="2" stroke-linecap="round" stroke-linejoin="round" stroke-miterlimit="10" d="   M53.8,74.2c0,0,5.6,0,6.2-5.7l-4.4-32.5"></path>
	<path fill="none" stroke="#808181" stroke-width="2" stroke-linecap="round" stroke-linejoin="round" stroke-miterlimit="10" d="   M57.1,21.5c1.2-1,2.5-1.8,3.9-2.4c0.3-0.1,0.6-0.3,0.9-0.1c0.3,0.2,0.4,0.6,0.4,1c0.1,1.4,0.2,2.9,0.4,4.3c1.1-0.2,2.3-0.4,3.4,0.1   c1.1,0.4,2.2,0.9,1.8,1.9c-0.2,0.3-0.8,1.4-1.1,1.6c-0.7,0.7-1.4,1.4-2.2,2.2"></path>
	<path fill="none" stroke="#808181" stroke-width="2" stroke-linecap="round" stroke-linejoin="round" stroke-miterlimit="10" d="   M66.6,31.4c-1.9,1.8-4.2,3.2-6.7,3.6c-2.5,0.5-5.3-0.1-7.3-1.8c-1-0.8-1.7-1.9-2.4-3.1c-0.3-0.5-0.6-1.1-0.9-1.6"></path>
	<path fill="none" stroke="#808181" stroke-width="2" stroke-linecap="round" stroke-linejoin="round" stroke-miterlimit="10" d="   M33.1,21.6c-1-1.2-2.2-2.2-3.5-3c-0.3-0.2-0.6-0.4-0.9-0.3c-0.4,0.1-0.5,0.5-0.6,0.9c-0.3,1.4-0.7,2.8-1,4.2   c-1.1-0.4-2.2-0.7-3.3-0.5c-1.1,0.3-2.4,0.5-2,1.6c0.1,0.3,0.6,1.5,0.8,1.8c0.6,0.8,1.2,1.6,1.8,2.5"></path>
	<path fill="none" stroke="#808181" stroke-width="2" stroke-linecap="round" stroke-linejoin="round" stroke-miterlimit="10" d="   M22.2,30c1.6,2.1,3.6,3.8,6.1,4.6s5.3,0.7,7.5-0.6c1.1-0.7,2-1.6,2.9-2.6c0.7-0.8,1.3-1.6,1.8-2.4"></path>
	<path fill="none" stroke="#808181" stroke-width="2" stroke-linecap="round" stroke-linejoin="round" stroke-miterlimit="10" d="   M47.7,28.9l3.7,40.9c0,0,1.2,7.4-6.5,7.4c0,0-5.6,0.4-6.5-6l3-42.3"></path>
	<path fill="none" stroke="#808181" stroke-width="2" stroke-linecap="round" stroke-linejoin="round" stroke-miterlimit="10" d="   M35,19.3c0.6,2.5,1.7,5,3.6,6.7c1.9,1.8,4.5,2.9,7,2.5c1.3-0.2,2.5-0.7,3.7-1.2c1.2-0.6,2.5-1.2,3.5-2.2c1-0.9,1.8-2.2,1.9-3.5   c0-0.3,0-0.5-0.1-0.7c-0.4-0.5-1.5,0.1-1.8-0.5c0.5-1.2,0.9-2.5,1-3.9c0.1-0.6,0-1.4-0.6-1.6c-0.3-0.1-0.7,0-1,0.1   c-1.2,0.4-2.5,0.8-3.7,1.2c-0.4-1.5-1.1-2.9-1.9-4.2c-0.2-0.3-0.4-0.6-0.7-0.6c-0.4,0-0.7,0.3-0.9,0.6c-0.9,1.1-1.8,2.3-2.7,3.4   c-0.8-0.8-1.7-1.6-2.8-1.8s-2.4-0.5-2.5,0.6c-0.1,0.4-0.1,1.6,0,2c0.2,1,0.4,2,0.6,3"></path>
	<path fill="none" stroke="#808181" stroke-width="2" stroke-linecap="round" stroke-linejoin="round" stroke-miterlimit="10" d="   M44.1,34.2c0,0-4.1,39.4-0.8,39.7"></path>
	<path fill="none" stroke="#808181" stroke-width="2" stroke-linecap="round" stroke-linejoin="round" stroke-miterlimit="10" d="   M37.5,36.1c0,0-5.7,33.7-3.3,34.7"></path>
	<path fill="none" stroke="#808181" stroke-width="2" stroke-linecap="round" stroke-linejoin="round" stroke-miterlimit="10" d="   M52.4,36.1c0,0,5.7,33.7,3.3,34.7"></path>
</g>
</svg>
