<?xml version="1.0" encoding="UTF-8"?>
<svg xmlns="http://www.w3.org/2000/svg" xmlns:xlink="http://www.w3.org/1999/xlink" version="1.1" id="Capa_1" x="0px" y="0px" viewBox="0 0 89.2 89.2" xml:space="preserve">
<g>
	<path fill="none" stroke="#808181" stroke-width="2" stroke-linecap="round" stroke-miterlimit="10" d="M43,37.4   c0,0,7.6-23.1-18.3-22.2c0,0-25.4,0.8-17.9,22.2c0,0,1.8,9.3,17.8,8.3C24.7,45.8,39.9,46.7,43,37.4z"></path>
	<path fill="none" stroke="#808181" stroke-width="2" stroke-linecap="round" stroke-miterlimit="10" d="M10.5,26.7   c0,0,8.6-10.8,20.5-6.5"></path>
	<path fill="none" stroke="#808181" stroke-width="2" stroke-linecap="round" stroke-miterlimit="10" d="M72.4,50.9   c0,0,17.9-10.8,0.6-24.7c0,0-17-13.7-24.1,4.5c0,0-4.1,7.1,6.9,15.4C55.8,46.1,65.2,55.2,72.4,50.9z"></path>
	<path fill="none" stroke="#808181" stroke-width="2" stroke-linecap="round" stroke-miterlimit="10" d="M57.2,25.7   c0,0,11.6-2.2,17,7.3"></path>
	<path fill="none" stroke="#808181" stroke-width="2" stroke-linecap="round" stroke-miterlimit="10" d="M56,68.2   c0,0,6.9-19.7-15.3-19.4c0,0-21.8,0.3-15.7,18.8c0,0,1.4,8,15.2,7.5C40.1,75.1,53.2,76.2,56,68.2z"></path>
	<path fill="none" stroke="#808181" stroke-width="2" stroke-linecap="round" stroke-miterlimit="10" d="M28.2,58.5   c0,0,7.5-9.1,17.8-5.2"></path>
</g>
</svg>
