<?xml version="1.0" encoding="UTF-8"?>
<svg xmlns="http://www.w3.org/2000/svg" xmlns:xlink="http://www.w3.org/1999/xlink" version="1.1" id="Capa_1" x="0px" y="0px" viewBox="0 0 89.2 89.2" xml:space="preserve">
<g>
	<path fill="none" stroke="#808181" stroke-width="2" stroke-linecap="round" stroke-linejoin="round" stroke-miterlimit="10" d="   M52.3,27.2h-0.6c0.1-0.2,0.2-0.5,0.2-0.7V24c0-0.9-0.7-1.7-1.7-1.7h-1.9c-0.2,0-0.3-0.1-0.4-0.3l-2.9-9.9c-0.1-0.4-0.6-0.4-0.7,0   l-2.8,10.2h-0.2h-2c-0.9,0-1.7,0.7-1.7,1.7v2.5c0,0.3,0.1,0.5,0.2,0.7h-0.6c-1.9,0-3.5,1.6-3.5,3.5v42.5c0,1.9,1.6,3.5,3.5,3.5   h14.9c1.9,0,3.5-1.6,3.5-3.5V30.7C55.8,28.8,54.2,27.2,52.3,27.2z"></path>
	<path fill="none" stroke="#808181" stroke-width="2" stroke-linecap="round" stroke-linejoin="round" stroke-miterlimit="10" d="   M39.6,27.6c0,0,4.9,1.5,11.6-0.4"></path>
	<path fill="none" stroke="#808181" stroke-width="2" stroke-linecap="round" stroke-linejoin="round" stroke-miterlimit="10" d="   M42.6,22.7c0,0,3,0.5,5-0.4"></path>
	<path fill="none" stroke="#808181" stroke-width="2" stroke-linecap="round" stroke-linejoin="round" stroke-miterlimit="10" d="   M39.6,30.7c0,0-2.9-0.2-2.9,4.7v18.4"></path>
</g>
</svg>
