<?xml version="1.0" encoding="UTF-8"?>
<svg xmlns="http://www.w3.org/2000/svg" xmlns:xlink="http://www.w3.org/1999/xlink" version="1.1" id="Capa_1" x="0px" y="0px" viewBox="0 0 89.2 89.2" xml:space="preserve">
<g>
	<path fill="none" stroke="#808181" stroke-width="2" stroke-linecap="round" stroke-linejoin="round" stroke-miterlimit="10" d="   M44.8,77c-28.1-4.4-27.3-33.6-27.3-33.6c0.4-28.5,27.3-31.9,27.3-31.9s26.9,3.4,27.3,31.9C72.1,43.4,72.9,72.7,44.8,77z"></path>
	<path fill="none" stroke="#808181" stroke-width="2" stroke-linecap="round" stroke-linejoin="round" stroke-miterlimit="10" d="   M44.8,71.5c-22.8-3-22.9-28.8-22.9-28.8c0.9-23.2,22.9-25.4,22.9-25.4s22,2.2,22.9,25.4C67.7,42.7,67.6,68.5,44.8,71.5z"></path>
	<path fill="none" stroke="#808181" stroke-width="2" stroke-linecap="round" stroke-linejoin="round" stroke-miterlimit="10" d="   M46.9,28c-0.3-0.9-0.5-1.9-0.3-2.8c0.2-0.9,1.2-1.8,2.1-1.6c-0.3-0.9,1-1.5,2-1.6c1.1-0.1,2.3-0.2,3.3,0.4s1.4,2.1,0.5,2.8   c1.8,0.4,3.5,1.4,4.4,3c1,1.6,1,3.7-0.2,5.1c2.9,1.4,4.4,3.8,5,6.9c0.6,3.2-0.4,7-3.7,7.2c2.4,2.5,3,4.7,2.1,8.1   c-0.4,1.6-1.5,3.9-2.9,4.8c-1.4,0.8-3.6,1.5-4.3,0c-0.1,2.2-0.7,2.9-2,3.7c-1.2,0.7-2.7,1.9-3.5,0.7c-0.1,1-0.9,1.8-1.9,1.9   c-1,0.1-2-0.7-2.2-1.6c-0.1-0.7,0.1-1.3,0.1-2c0.1-1.4-0.6-2.7-0.7-4.1c-0.1-1.4,0.9-3.1,2.3-2.8c-1.9-1.8-1.8-5.1,0.2-6.8   c-1.5-0.8-1.9-3.2-0.8-4.5c0.3-0.3,0.6-0.6,0.7-1c0.1-0.5-0.2-0.9-0.5-1.3c-0.7-1-1.3-2.2-1.2-3.4c0.1-1.2,0.9-2.5,2.2-2.6   c-2.5-2.2-2.7-6.5-0.4-8.9"></path>
	<path fill="none" stroke="#808181" stroke-width="2" stroke-linecap="round" stroke-linejoin="round" stroke-miterlimit="10" d="   M42.7,28c0.3-0.9,0.5-1.9,0.3-2.8c-0.2-0.9-1.2-1.8-2.1-1.6c0.3-0.9-1-1.5-2-1.6c-1.1-0.1-2.3-0.2-3.3,0.4s-1.4,2.1-0.5,2.8   c-1.8,0.4-3.5,1.4-4.4,3c-1,1.6-1,3.7,0.2,5.1c-2.9,1.4-4.4,3.8-5,6.9c-0.6,3.2,0.4,7,3.7,7.2c-2.4,2.5-3,4.7-2.1,8.1   c0.4,1.6,1.5,3.9,2.9,4.8s3.6,1.5,4.3,0c0.1,2.2,0.7,2.9,2,3.7c1.2,0.7,2.7,1.9,3.5,0.7c0.1,1,0.9,1.8,1.9,1.9c1,0.1,2-0.7,2.2-1.6   c0.1-0.7-0.1-1.3-0.1-2c-0.1-1.4,0.6-2.7,0.7-4.1c0.1-1.4-0.9-3.1-2.3-2.8c1.9-1.8,1.8-5.1-0.2-6.8c1.5-0.8,1.9-3.2,0.8-4.5   c-0.3-0.3-0.6-0.6-0.7-1c-0.1-0.5,0.2-0.9,0.5-1.3c0.7-1,1.3-2.2,1.2-3.4c-0.1-1.2-0.9-2.5-2.2-2.6c2.5-2.2,2.7-6.5,0.4-8.9"></path>
</g>
</svg>
