<?xml version="1.0" encoding="UTF-8"?>
<svg xmlns="http://www.w3.org/2000/svg" xmlns:xlink="http://www.w3.org/1999/xlink" version="1.1" id="Capa_1" x="0px" y="0px" viewBox="0 0 89.2 89.2" xml:space="preserve">
<g>
	<path fill="none" stroke="#808181" stroke-width="2" stroke-linecap="round" stroke-linejoin="round" stroke-miterlimit="10" d="   M56.8,36.2c0.3,5.3-3.7,9.8-9,10.2c-5.3,0.3-9.8-3.7-10.2-9C37.3,32,40.8,18.3,46.1,18S56.5,30.9,56.8,36.2z"></path>
	<path fill="none" stroke="#808181" stroke-width="2" stroke-linecap="round" stroke-linejoin="round" stroke-miterlimit="10" d="   M46.2,22.8c0.7,6.4,1.4,12.8,1.9,19.3"></path>
	<path fill="none" stroke="#808181" stroke-width="2" stroke-linecap="round" stroke-linejoin="round" stroke-miterlimit="10" d="   M74.1,64.3c-2,4.9-7.7,7.2-12.6,5.2s-7.2-7.7-5.2-12.6s11.2-15.7,16.1-13.7C77.4,45.2,76.2,59.4,74.1,64.3z"></path>
	<path fill="none" stroke="#808181" stroke-width="2" stroke-linecap="round" stroke-linejoin="round" stroke-miterlimit="10" d="   M70.5,47.5c-2.2,6.1-4.4,12.1-6.7,18.1"></path>
	<path fill="none" stroke="#808181" stroke-width="2" stroke-linecap="round" stroke-linejoin="round" stroke-miterlimit="10" d="   M14.6,56.6c-2.3-4.8-0.3-10.5,4.4-12.9s10.5-0.3,12.9,4.4s4.4,18.8-0.4,21.2S16.9,61.4,14.6,56.6z"></path>
	<path fill="none" stroke="#808181" stroke-width="2" stroke-linecap="round" stroke-linejoin="round" stroke-miterlimit="10" d="   M29.6,64.9c-3.1-5.6-6.2-11.3-9.2-17"></path>
</g>
</svg>
