<?xml version="1.0" encoding="UTF-8"?>
<svg xmlns="http://www.w3.org/2000/svg" xmlns:xlink="http://www.w3.org/1999/xlink" version="1.1" id="Capa_1" x="0px" y="0px" viewBox="0 0 89.2 89.2" xml:space="preserve">
<g>
	<path fill="none" stroke="#808181" stroke-width="2" stroke-linecap="round" stroke-linejoin="round" stroke-miterlimit="10" d="   M61,64.9c0-0.6,3.6-3.3,4-3.7c4.1-4.9,11-11.5,12.7-20.3c0,0,1.4-3.7,0-8.5c-1.4-4.8-4.6-6.9-4.6-6.9c-0.6-1.3-0.6-2.5-2.9-4.5   c-2.1-1.9-5.1-2.7-5.1-2.7c-1.8-1.3-1.5-2.9-5.8-3.9c-3.8-1-8.2-0.2-8.2-0.2c-1.8-0.8-2.6-1.7-5.8-1.7c-3.3,0-5.7,1.7-5.7,1.7   c-2.8-0.3-4.5-0.8-7.7,0.2c-4.3,1.3-6.3,4.6-6.3,4.6c-2.1,0-3.3,0.4-4.7,1.3c-2.8,1.7-3.3,5.3-3.3,5.3c-2.8,1.8-5,3.9-5.7,6.3   c-1.4,4.5,1.1,9.1,1.1,9.1c1.7,8.8,9,15.8,13.2,20.6c0.4,0.5,3.5,2.8,3.5,3.4c-0.2,3.5,0.2,7.7,3.1,8.1h5.9c0.3,0,0.5,0.1,0.8,0.2   c2.5,1.6,4.6,2.5,5.4,2.8c0.3,0.1,0.6,0.1,0.9,0c0.9-0.3,2.9-1.2,5.4-2.8c0.2-0.2,0.5-0.2,0.8-0.2h5.9C60.8,72.5,61.2,68.4,61,64.9   z"></path>
	
		<line fill="none" stroke="#808181" stroke-width="2" stroke-linecap="round" stroke-linejoin="round" stroke-miterlimit="10" x1="43.4" y1="55.4" x2="39.5" y2="14.2"></line>
	
		<line fill="none" stroke="#808181" stroke-width="2" stroke-linecap="round" stroke-linejoin="round" stroke-miterlimit="10" x1="25.5" y1="18.9" x2="39.5" y2="56.6"></line>
	
		<line fill="none" stroke="#808181" stroke-width="2" stroke-linecap="round" stroke-linejoin="round" stroke-miterlimit="10" x1="17.5" y1="25.5" x2="35" y2="60"></line>
	
		<line fill="none" stroke="#808181" stroke-width="2" stroke-linecap="round" stroke-linejoin="round" stroke-miterlimit="10" x1="51.1" y1="14.2" x2="48.5" y2="55.4"></line>
	
		<line fill="none" stroke="#808181" stroke-width="2" stroke-linecap="round" stroke-linejoin="round" stroke-miterlimit="10" x1="65.1" y1="18.3" x2="53.1" y2="56.7"></line>
	
		<line fill="none" stroke="#808181" stroke-width="2" stroke-linecap="round" stroke-linejoin="round" stroke-miterlimit="10" x1="73.1" y1="25.5" x2="55.5" y2="60"></line>
</g>
</svg>
