<?xml version="1.0" encoding="UTF-8"?>
<svg xmlns="http://www.w3.org/2000/svg" xmlns:xlink="http://www.w3.org/1999/xlink" version="1.1" id="Capa_1" x="0px" y="0px" viewBox="0 0 89.2 89.2" xml:space="preserve">
<g>
	<path fill="none" stroke="#808181" stroke-width="2" stroke-linecap="round" stroke-linejoin="round" stroke-miterlimit="10" d="   M18.9,69.8c0,0,21.9,6.7,25.6-12.4c0,0,13.8-0.5,13.5-13.8c0,0,17.5,1.3,13.8-25.9c0,0-24.6-5.7-26.2,13c0,0-13.8-0.7-14,13.3   C31.6,43.9,14.1,43.6,18.9,69.8z"></path>
	
		<circle fill="none" stroke="#808181" stroke-width="2" stroke-linecap="round" stroke-linejoin="round" stroke-miterlimit="10" cx="58.2" cy="30.8" r="7"></circle>
	
		<circle fill="none" stroke="#808181" stroke-width="2" stroke-linecap="round" stroke-linejoin="round" stroke-miterlimit="10" cx="45.2" cy="43.9" r="7"></circle>
	
		<circle fill="none" stroke="#808181" stroke-width="2" stroke-linecap="round" stroke-linejoin="round" stroke-miterlimit="10" cx="31.3" cy="57.9" r="7"></circle>
	<path fill="none" stroke="#808181" stroke-width="2" stroke-linecap="round" stroke-linejoin="round" stroke-miterlimit="10" d="   M29.3,61.5c0,0,4.9,1.3,6.5-4.1"></path>
	<path fill="none" stroke="#808181" stroke-width="2" stroke-linecap="round" stroke-linejoin="round" stroke-miterlimit="10" d="   M43.4,47.7c0,0,4.9,1.3,6.5-4.1"></path>
	<path fill="none" stroke="#808181" stroke-width="2" stroke-linecap="round" stroke-linejoin="round" stroke-miterlimit="10" d="   M56.3,34.4c0,0,4.9,1.3,6.5-4.1"></path>
	<path fill="none" stroke="#808181" stroke-width="2" stroke-linecap="round" stroke-linejoin="round" stroke-miterlimit="10" d="   M50.9,43.9"></path>
	<path fill="none" stroke="#808181" stroke-width="2" stroke-linecap="round" stroke-linejoin="round" stroke-miterlimit="10" d="   M43.5,49.4"></path>
</g>
</svg>
